<svg width="32" height="32" viewBox="0 0 32 32" fill="none" xmlns="http://www.w3.org/2000/svg">
<rect width="32" height="32" fill="#6E0AD6"/>
<path fill-rule="evenodd" clip-rule="evenodd" d="M7.65347 20.5477C6.12011 20.5477 5.06262 19.282 5.06262 17.4104C5.06262 15.5388 6.12011 14.2548 7.65347 14.2548C9.18682 14.2548 10.244 15.5205 10.244 17.3924C10.244 19.2643 9.18654 20.5477 7.65347 20.5477ZM7.65347 22.9191C10.4908 22.9191 12.7466 20.5666 12.7466 17.3935C12.7466 14.2203 10.6141 11.8848 7.65347 11.8848C4.81581 11.8837 2.56006 14.237 2.56006 17.4104C2.56006 20.5839 4.69254 22.9191 7.65347 22.9191Z" fill="white"/>
<path fill-rule="evenodd" clip-rule="evenodd" d="M14.8438 18.7117H19.7082C20.043 18.7117 20.2357 18.5156 20.2357 18.1766V16.6259C20.2357 16.2872 20.0413 16.0911 19.7082 16.0911H16.4477V9.49478C16.4477 9.15613 16.2534 8.95999 15.9202 8.95999H14.3152C13.9804 8.95999 13.7877 9.15613 13.7877 9.49478V17.6421C13.7877 18.3372 14.1578 18.7117 14.8449 18.7117" fill="#8CE563"/>
<path fill-rule="evenodd" clip-rule="evenodd" d="M21.4531 22.7583L24.3785 19.3548L27.2159 22.7596C27.4627 23.063 27.78 23.063 28.0618 22.8143L29.2076 21.7981C29.4894 21.5486 29.5246 21.2278 29.2603 20.9425L26.1056 17.3746L28.9783 14.112C29.2251 13.8269 29.2076 13.5236 28.9255 13.2563L27.8505 12.2759C27.5684 12.0084 27.2511 12.0262 27.0043 12.3306L24.3785 15.4135L21.6996 12.3293C21.4531 12.044 21.1358 12.0084 20.8537 12.2746L19.7432 13.2727C19.4611 13.5403 19.4436 13.8256 19.7079 14.1284L22.6327 17.3924L19.4428 20.9758C19.1782 21.2787 19.2134 21.5817 19.4955 21.8315L20.606 22.8119C20.8881 23.0616 21.2054 23.0436 21.452 22.7572" fill="#F28000"/>
</svg>
