<svg width="32" height="32" viewBox="0 0 32 32" fill="none" xmlns="http://www.w3.org/2000/svg">
<g clip-path="url(#clip0_3472_9981)">
<path d="M32 0H0V32H32V0Z" fill="#0E87FE"/>
<path d="M29.356 13.1634H28.7392C28.5625 13.1634 28.4568 13.2677 28.4568 13.4414V15.2398C28.4568 15.9001 28.0949 16.2737 27.5924 16.2737C27.0639 16.2737 26.7627 15.9348 26.7627 15.2833V13.44C26.7627 13.2662 26.6556 13.162 26.4804 13.162H25.8635C25.6869 13.162 25.5812 13.2662 25.5812 13.44V15.3687C25.5812 16.5937 26.2255 17.2887 27.1957 17.2887C27.7778 17.2887 28.2281 17.0976 28.5452 16.7066L28.5987 16.9499C28.6335 17.1077 28.7406 17.1931 28.9072 17.1931H29.3575C29.5341 17.1931 29.6398 17.0874 29.6398 16.9151V13.44C29.6398 13.2662 29.5341 13.162 29.3575 13.162L29.356 13.1634ZM25.0512 16.1347H23.9392C23.5511 16.1347 23.3484 15.9348 23.3484 15.5526V13.4414C23.3484 13.2677 23.2413 13.1634 23.0661 13.1634H22.4304C22.2538 13.1634 22.1481 13.2677 22.1481 13.4414V15.7003C22.1481 16.6299 22.7215 17.196 23.667 17.196H25.0512C25.2279 17.196 25.3336 17.0918 25.3336 16.918V16.4127C25.3336 16.2389 25.2264 16.1347 25.0498 16.1347H25.0512ZM7.07332 13.4328C7.05594 13.2518 6.95893 13.1634 6.78228 13.1634H6.31458C6.16544 13.1634 6.05974 13.2243 5.98011 13.3546L4.84201 15.2485L3.78354 13.3546C3.71259 13.2228 3.59676 13.1634 3.44906 13.1634H2.94662C2.76997 13.1634 2.67296 13.2518 2.65558 13.4328L2.36454 16.9093C2.34716 17.1005 2.44418 17.196 2.62952 17.196H3.19422C3.37087 17.196 3.47658 17.1091 3.48526 16.9267L3.60834 14.9806L4.28744 16.1882C4.35839 16.32 4.47422 16.3794 4.62192 16.3794H5.00997C5.16056 16.3794 5.26626 16.3272 5.34445 16.1882L6.11187 14.8938L6.2002 16.9267C6.20888 17.1106 6.30735 17.196 6.48255 17.196H7.09069C7.27748 17.196 7.37305 17.1005 7.35567 16.9093L7.07332 13.4342V13.4328ZM21.3285 13.1634H20.8435C20.6755 13.1634 20.5611 13.2503 20.535 13.4154L20.509 13.6152C20.2353 13.3285 19.8386 13.0679 19.1768 13.0679C18.0648 13.0679 17.2453 13.928 17.2453 15.1703C17.2453 16.4127 18.0127 17.2901 19.1059 17.2901C19.7937 17.2901 20.244 17.0034 20.5177 16.7081L20.5625 16.9513C20.5886 17.1091 20.6958 17.1946 20.8623 17.1946H21.33C21.5066 17.1946 21.6123 17.0889 21.6123 16.9166V13.44C21.6123 13.2662 21.5066 13.162 21.33 13.162L21.3285 13.1634ZM19.4346 16.2737C18.8076 16.2737 18.4109 15.848 18.4109 15.1877C18.4109 14.5274 18.825 14.0843 19.4346 14.0843C20.0442 14.0843 20.4583 14.51 20.4583 15.1703C20.4583 15.8393 20.0427 16.2737 19.4346 16.2737ZM16.5387 13.1634H16.0536C15.8856 13.1634 15.7712 13.2503 15.7452 13.4154L15.7191 13.6152C15.4454 13.3285 15.0487 13.0679 14.387 13.0679C13.2749 13.0679 12.4554 13.8758 12.4554 15.1182C12.4554 16.3605 13.2141 17.1338 14.3073 17.1338C14.9864 17.1338 15.3919 16.8557 15.6655 16.5604V16.7602C15.6655 17.4552 15.2688 17.8983 14.4304 17.8983C14.0873 17.8983 13.747 17.8273 13.4328 17.6883C13.2648 17.6101 13.133 17.6449 13.0534 17.81L12.8594 18.1922C12.7797 18.35 12.8058 18.4789 12.9564 18.5658C13.4241 18.8264 13.9975 18.9307 14.5535 18.9307C15.9378 18.9307 16.821 18.0706 16.821 16.8717V13.44C16.821 13.2662 16.7139 13.162 16.5387 13.162V13.1634ZM14.6418 16.1433C14.0337 16.1433 13.6181 15.7437 13.6181 15.1269C13.6181 14.4753 14.0496 14.0843 14.6418 14.0843C15.234 14.0843 15.6655 14.4405 15.6655 15.1095C15.6655 15.709 15.234 16.1433 14.6418 16.1433ZM11.7488 13.1634H11.2637C11.0958 13.1634 10.9814 13.2503 10.9553 13.4154L10.9292 13.6152C10.6556 13.3285 10.2588 13.0679 9.59712 13.0679C8.48508 13.0679 7.66553 13.928 7.66553 15.1703C7.66553 16.4127 8.43296 17.2901 9.52762 17.2901C10.2154 17.2901 10.6657 17.0034 10.9394 16.7081L10.9843 16.9513C11.0103 17.1091 11.1175 17.1946 11.284 17.1946H11.7517C11.9283 17.1946 12.034 17.0889 12.034 16.9166V13.44C12.034 13.2662 11.9283 13.162 11.7517 13.162L11.7488 13.1634ZM9.85196 16.2737C9.22644 16.2737 8.82825 15.848 8.82825 15.1877C8.82825 14.5274 9.24237 14.0843 9.85196 14.0843C10.4616 14.0843 10.8757 14.51 10.8757 15.1703C10.8757 15.8306 10.4616 16.2737 9.85196 16.2737Z" fill="white"/>
</g>
<defs>
<clipPath id="clip0_3472_9981">
<rect width="32" height="32" fill="white"/>
</clipPath>
</defs>
</svg>
