<svg width="32" height="32" viewBox="0 0 32 32" fill="none" xmlns="http://www.w3.org/2000/svg">
<rect width="32" height="32" fill="#FFE700"/>
<path d="M29.4401 15.6743C29.4401 10.9045 23.4197 7.03999 16.0001 7.03999C8.58043 7.03999 2.56006 10.9221 2.56006 15.6743V16.1792C2.56006 21.2276 7.81918 25.3184 16.0001 25.3184C24.1809 25.3184 29.4401 21.2276 29.4401 16.1792V15.6743Z" fill="#2D3277"/>
<path d="M28.9256 15.6732C28.9256 20.1471 23.1354 23.8026 15.9992 23.8026C8.86299 23.8026 3.07275 20.1646 3.07275 15.6732C3.07275 11.1817 8.86299 7.54372 15.9992 7.54372C23.1354 7.54372 28.9256 11.182 28.9256 15.6732Z" fill="#F7D032"/>
<path d="M11.7062 13.0999C11.7062 13.1172 11.5645 13.2392 11.6532 13.3437C11.8658 13.6048 12.4853 13.7441 13.123 13.6048C13.4949 13.5178 13.9906 13.1347 14.4511 12.7692C14.9647 12.3688 15.4604 11.9684 15.9739 11.8118C16.5051 11.6377 16.8593 11.7073 17.0895 11.777C17.3375 11.8466 17.6385 12.0032 18.0987 12.3515C18.9841 13.013 22.5433 16.0595 23.1453 16.5816C23.641 16.3554 25.8369 15.4325 28.8295 14.7886C28.564 13.2219 27.6077 11.7945 26.1379 10.6106C24.084 11.4635 21.5871 11.8987 19.1434 10.7151C19.1258 10.7151 17.7977 10.0885 16.5051 10.1233C14.5571 10.1754 13.725 10.9938 12.8396 11.8642L11.7062 13.1002V13.0999Z" fill="#FFFFF6"/>
<path d="M23.0235 16.9497C22.9881 16.9149 18.8445 13.3463 17.9061 12.6673C17.3572 12.2669 17.0562 12.1624 16.7373 12.1276C16.578 12.1103 16.3476 12.1448 16.1883 12.1797C15.7456 12.3014 15.1791 12.667 14.6831 13.0674C14.152 13.485 13.656 13.8681 13.2133 13.9726C12.6289 14.0944 11.903 13.9553 11.5842 13.7288C11.4603 13.6419 11.3541 13.5374 11.3186 13.4329C11.1948 13.1543 11.4249 12.9456 11.4603 12.8932L12.5937 11.6748C12.7354 11.5355 12.8593 11.4137 13.001 11.2917C12.6292 11.3438 12.2927 11.431 11.9563 11.5179C11.549 11.6397 11.1418 11.7442 10.7345 11.7442C10.5574 11.7442 9.67196 11.6048 9.49512 11.5527C8.46801 11.2741 7.54718 10.9958 6.20151 10.3864C4.57242 11.5703 3.49231 13.0674 3.17346 14.7037C3.4036 14.7734 3.77544 14.8779 3.93501 14.9127C7.61833 15.7135 8.75143 16.5491 8.964 16.7232C9.19413 16.4794 9.51298 16.3228 9.86696 16.3228C10.2742 16.3228 10.6461 16.5318 10.8586 16.8277C11.0712 16.6711 11.3543 16.5318 11.7262 16.5318C11.9033 16.5318 12.0805 16.5666 12.2573 16.6187C12.6646 16.758 12.8947 17.0364 13.001 17.2802C13.1427 17.2105 13.3199 17.1757 13.5146 17.1757C13.7093 17.1757 13.9218 17.2278 14.1165 17.315C14.7894 17.5936 14.8957 18.2551 14.8427 18.7424H14.9844C15.7813 18.7424 16.4363 19.3866 16.4363 20.1698C16.4363 20.4136 16.3655 20.6398 16.2592 20.8488C16.4717 20.9706 17.0383 21.2492 17.5164 21.1795C17.9061 21.1274 18.0476 21.0054 18.1008 20.9185C18.1363 20.8664 18.1717 20.814 18.1363 20.7619L17.0916 19.6304C17.0916 19.6304 16.9144 19.4738 16.9853 19.4041C17.0383 19.3345 17.1446 19.439 17.2154 19.4911C17.7466 19.9263 18.3843 20.5705 18.3843 20.5705C18.4018 20.5705 18.4373 20.6574 18.6677 20.7098C18.8803 20.7446 19.2342 20.7271 19.4822 20.5184C19.5531 20.4663 19.6061 20.3966 19.6594 20.3442L19.6418 20.3615C19.9074 20.0308 19.6064 19.6825 19.6064 19.6825L18.4021 18.342C18.4021 18.342 18.225 18.1854 18.2958 18.1158C18.3488 18.0637 18.4551 18.1506 18.5438 18.2027C19.0041 18.4986 19.5355 19.0383 20.0666 19.5432C20.1729 19.6128 20.6332 19.8915 21.2355 19.5083C21.6073 19.2645 21.6782 18.9862 21.6603 18.7597C21.6427 18.4638 21.4123 18.2548 21.4123 18.2548L19.7657 16.6184C19.7657 16.6184 19.5885 16.4791 19.6594 16.3922C19.7124 16.3225 19.8186 16.427 19.8895 16.4791C20.4206 16.9143 21.8374 18.2024 21.8374 18.2024C21.855 18.2197 22.351 18.568 22.953 18.1851C23.1655 18.0458 23.3073 17.8369 23.3248 17.6106C23.3248 17.193 23.0238 16.9492 23.0238 16.9492" fill="#FFFFF6"/>
<path d="M15.0104 19.021C14.7624 19.021 14.4793 19.1603 14.4439 19.1428C14.4263 19.1255 14.4615 19.021 14.4793 18.9686C14.4969 18.9165 14.8336 17.9068 14.019 17.5585C13.3816 17.2974 13.0098 17.5933 12.8681 17.7327C12.8327 17.7675 12.8151 17.7675 12.8151 17.7154C12.7975 17.5413 12.7267 17.0539 12.1777 16.8798C11.3986 16.6536 10.9029 17.1757 10.7787 17.3671C10.7257 16.9319 10.3539 16.6012 9.89333 16.6012C9.39763 16.6012 8.99036 17.0016 8.99036 17.4889C8.99036 17.9762 9.39763 18.3766 9.89333 18.3766C10.1413 18.3766 10.3536 18.2896 10.5132 18.1328V18.1676C10.4777 18.3766 10.4069 19.1773 11.2569 19.5081C11.5933 19.6298 11.8943 19.5429 12.1244 19.3687C12.1953 19.3166 12.2128 19.3339 12.1953 19.4036C12.1598 19.6125 12.1953 20.0478 12.8327 20.2913C13.3108 20.4827 13.5942 20.2913 13.7711 20.1171C13.8595 20.0475 13.8773 20.065 13.8773 20.1692C13.8949 20.7786 14.4085 21.2486 15.0107 21.2486C15.613 21.2486 16.1441 20.7438 16.1441 20.1344C16.1441 19.525 15.6306 19.0202 15.0107 19.0202" fill="#FFFFF6"/>
<path d="M15.0104 21.1663C14.4439 21.1663 13.9833 20.7311 13.9658 20.1741C13.9658 20.122 13.9658 20 13.8595 20C13.8065 20 13.7711 20.0348 13.7356 20.0696C13.6118 20.1914 13.4522 20.2959 13.2221 20.2959C13.1158 20.2959 13.0095 20.2786 12.8857 20.2262C12.2837 19.9824 12.2837 19.582 12.3012 19.4255C12.3012 19.3734 12.3012 19.3385 12.2837 19.3037L12.2483 19.2689H12.1774C12.142 19.2689 12.1065 19.2861 12.0711 19.3037C11.894 19.4255 11.7347 19.4778 11.5576 19.4778C11.4691 19.4778 11.3628 19.4606 11.2741 19.4257C10.4772 19.1298 10.548 18.3987 10.5834 18.1725C10.5834 18.1204 10.5834 18.0856 10.548 18.068L10.495 18.0159L10.442 18.068C10.2827 18.2073 10.0877 18.2942 9.87547 18.2942C9.4152 18.2942 9.06092 17.9287 9.06092 17.4935C9.06092 17.0583 9.43277 16.6927 9.87547 16.6927C10.2827 16.6927 10.637 16.9886 10.69 17.389L10.7254 17.598L10.8493 17.4065C10.8669 17.3893 11.1857 16.8844 11.8055 16.9017C11.9294 16.9017 12.0357 16.9189 12.1598 16.9538C12.638 17.0931 12.7264 17.5283 12.7442 17.7197C12.7618 17.8242 12.8327 17.8242 12.8505 17.8242C12.8859 17.8242 12.9214 17.7894 12.9389 17.7721C13.0274 17.6852 13.2224 17.5283 13.5409 17.5283C13.6826 17.5283 13.8419 17.5631 14.0012 17.6328C14.7803 17.9635 14.426 18.9209 14.426 18.9384C14.3552 19.095 14.3552 19.1647 14.426 19.2171L14.4615 19.2343H14.479C14.5145 19.2343 14.5499 19.2171 14.6207 19.1995C14.727 19.1647 14.8863 19.1126 15.028 19.1126C15.6124 19.1126 16.0906 19.5826 16.0906 20.1571C16.073 20.6968 15.5949 21.1669 15.0104 21.1669M23.1913 16.5186C21.9165 15.4219 18.9769 12.8975 18.1802 12.3233C17.7199 11.9926 17.4187 11.8012 17.1355 11.7315C17.0117 11.6967 16.8345 11.6618 16.622 11.6618C16.4273 11.6618 16.1971 11.6967 15.9667 11.7663C15.4531 11.9229 14.9396 12.3233 14.4439 12.7237L14.4263 12.741C13.9661 13.1065 13.4879 13.4721 13.1161 13.559C12.9568 13.5938 12.7972 13.6111 12.638 13.6111C12.2307 13.6111 11.8764 13.4893 11.735 13.3325C11.7174 13.2976 11.735 13.2628 11.788 13.1931V13.1759L12.9035 11.992C13.7889 11.1216 14.6035 10.3208 16.516 10.2687H16.6044C17.7908 10.2687 18.9772 10.7908 19.1189 10.8605C20.2344 11.4002 21.3854 11.6613 22.5364 11.6613C23.6873 11.6613 24.98 11.3654 26.2902 10.7736C26.1485 10.6518 25.9892 10.5298 25.83 10.4253C24.679 10.9126 23.581 11.1564 22.5364 11.1564C21.4917 11.1564 20.3761 10.8953 19.3312 10.4077C19.2782 10.3729 17.9676 9.7811 16.6041 9.7811H16.4978C14.8863 9.81593 13.9833 10.3729 13.3814 10.8605C12.7969 10.8778 12.2834 11.0171 11.8231 11.1391C11.4158 11.2436 11.0616 11.3481 10.7251 11.3481C10.5834 11.3481 10.3354 11.3308 10.3179 11.3308C9.92817 11.3136 7.9451 10.8435 6.38686 10.2514C6.22758 10.3559 6.06801 10.4777 5.92659 10.5997C7.57325 11.2612 9.57448 11.766 10.194 11.8181C10.3712 11.8354 10.5483 11.853 10.743 11.853C11.1678 11.853 11.5751 11.7312 11.9824 11.6267C12.2125 11.5571 12.4781 11.4874 12.7615 11.4353C12.6907 11.505 12.6198 11.5746 12.5314 11.6443L11.398 12.8627C11.3096 12.9496 11.1146 13.1934 11.2387 13.4893C11.2917 13.6111 11.398 13.7156 11.5397 13.8201C11.8053 13.9942 12.3012 14.116 12.7439 14.116C12.9211 14.116 13.0804 14.0987 13.2221 14.0639C13.7002 13.9594 14.1959 13.559 14.7273 13.1586C15.1522 12.8279 15.7544 12.4099 16.2147 12.2882C16.3385 12.2534 16.4981 12.2361 16.622 12.2361H16.7282C17.0292 12.2709 17.3302 12.3754 17.8438 12.7582C18.7822 13.4545 22.9258 17.0059 22.9612 17.0407C22.9612 17.0407 23.2268 17.2669 23.2092 17.6325C23.1916 17.8415 23.0853 18.0329 22.8728 18.1546C22.6956 18.2591 22.5185 18.3288 22.3238 18.3288C22.0404 18.3288 21.8635 18.207 21.8457 18.1895C21.8281 18.1722 20.4113 16.9014 19.8977 16.4662C19.8093 16.3965 19.7384 16.3444 19.6497 16.3444C19.6143 16.3444 19.5613 16.3617 19.5434 16.3965C19.455 16.501 19.561 16.6403 19.6673 16.7272L21.3318 18.3636C21.3318 18.3636 21.5444 18.555 21.5619 18.7988C21.5795 19.0775 21.4381 19.3037 21.1722 19.4778C20.9775 19.5996 20.7825 19.6693 20.5878 19.6693C20.3398 19.6693 20.163 19.5475 20.1097 19.5299L19.8796 19.3037C19.4369 18.886 18.9942 18.4508 18.6753 18.1722C18.5869 18.1025 18.516 18.0504 18.4273 18.0504C18.3919 18.0504 18.3565 18.0677 18.321 18.0853C18.2856 18.1201 18.2502 18.207 18.3565 18.3291C18.3919 18.3812 18.4449 18.416 18.4449 18.416L19.6491 19.7565C19.6667 19.7737 19.8971 20.0524 19.6846 20.331H19.6137L19.5074 20.4355C19.2949 20.6096 19.0293 20.6269 18.923 20.6269C18.87 20.6269 18.8167 20.6269 18.7637 20.6096C18.6399 20.5924 18.569 20.5575 18.5336 20.5051L18.516 20.4879C18.4452 20.4182 17.8432 19.8089 17.3296 19.3912C17.2588 19.3391 17.1879 19.2694 17.0995 19.2694C17.0641 19.2694 17.0287 19.2867 16.9932 19.3215C16.8869 19.426 17.0462 19.5826 17.0995 19.6523L18.1266 20.7665C18.1266 20.7838 18.1091 20.8013 18.0912 20.8362C18.0558 20.8883 17.9319 21.0103 17.5601 21.0624H17.4184C17.0287 21.0624 16.6214 20.871 16.4091 20.7665C16.4975 20.5575 16.5508 20.3488 16.5508 20.1223C16.5508 19.2867 15.8601 18.6077 15.0101 18.6077H14.9572C14.9926 18.2246 14.9217 17.511 14.178 17.1803C13.9655 17.0934 13.7532 17.041 13.5406 17.041C13.3814 17.041 13.2218 17.0758 13.0625 17.1279C12.9032 16.832 12.6552 16.6058 12.301 16.5013C12.1062 16.4316 11.9291 16.4144 11.752 16.4144C11.4331 16.4144 11.15 16.5013 10.8844 16.693C10.6364 16.3971 10.2646 16.2057 9.87518 16.2057C9.53876 16.2057 9.20234 16.345 8.95435 16.5712C8.6355 16.3274 7.36068 15.5267 3.94322 14.7783C3.78395 14.7435 3.39424 14.639 3.16411 14.5693C3.12868 14.7435 3.09325 14.9349 3.07568 15.1263C3.07568 15.1263 3.69552 15.2829 3.81937 15.3004C7.30769 16.0664 8.45865 16.8499 8.65365 17.0064C8.5828 17.163 8.54737 17.3372 8.54737 17.4938C8.54737 18.2076 9.13178 18.7818 9.85761 18.7818C9.94603 18.7818 10.0169 18.7818 10.0877 18.7646C10.194 19.2867 10.548 19.6871 11.0794 19.8788C11.2387 19.9309 11.3983 19.9657 11.5397 19.9657C11.646 19.9657 11.7344 19.9485 11.8407 19.9309C11.947 20.1747 12.1595 20.4879 12.6552 20.6796C12.8324 20.7492 12.9916 20.7841 13.1688 20.7841C13.3105 20.7841 13.4343 20.7668 13.5585 20.7144C13.7886 21.2714 14.3555 21.6545 14.975 21.6545C15.3823 21.6545 15.7896 21.4979 16.073 21.202C16.321 21.3413 16.8521 21.5851 17.3832 21.5851C17.4541 21.5851 17.5249 21.5851 17.5779 21.5678C18.1091 21.4982 18.357 21.3068 18.4633 21.1502C18.4809 21.1154 18.4988 21.0981 18.5163 21.0633C18.6402 21.0981 18.7819 21.1329 18.9412 21.1329C19.2246 21.1329 19.5077 21.0284 19.7911 20.837C20.0567 20.6456 20.2514 20.367 20.2868 20.1232V20.1059C20.3931 20.1059 20.4994 20.1232 20.5878 20.1232C20.8888 20.1232 21.1722 20.0363 21.4554 19.8621C21.9865 19.5138 22.0928 19.0613 22.0752 18.7654C22.1636 18.7827 22.2699 18.8003 22.3586 18.8003C22.642 18.8003 22.9076 18.7133 23.1732 18.5565C23.5096 18.3475 23.7043 18.0343 23.7397 17.6512C23.7573 17.3901 23.7043 17.1463 23.5626 16.9201C24.4656 16.537 26.5198 15.8059 28.928 15.2665C28.9104 15.075 28.8926 14.9009 28.8571 14.7268C25.9178 15.3534 23.7397 16.2762 23.1907 16.5197" fill="#2D3277"/>
</svg>
